# xmcd
#
# Track frame offsets:
#	150
#	12048
#	32856
#	45707
#	58459
#	80764
#	98723
#	118930
#	134450
#	156477
#	170082
#	178876
#
# Disc length: 2668 seconds
#
# Revision: 1
# Processed by: cddbd v1.5.2PL0 Copyright (c) Steve Scherf et al.
# Submitted via: audiograbber 1.83.01
#
DISCID=b00a6a0c
DTITLE=United Blues Experience - Soul on Fire
DYEAR=2012
DGENRE=Blues
TTITLE0=I'm Waiting for You
TTITLE1=Rock Me Baby
TTITLE2=Give Me Strength
TTITLE3=This Train
TTITLE4=Below Zero
TTITLE5=Light/swiatlo
TTITLE6=You Don't Love Me
TTITLE7=Please Accept My Love
TTITLE8=Blinded by the Night
TTITLE9=You Took Me Home
TTITLE10=Let Me Be
TTITLE11=Take Me Back
EXTD=
EXTT0=
EXTT1=
EXTT2=
EXTT3=
EXTT4=
EXTT5=
EXTT6=
EXTT7=
EXTT8=
EXTT9=
EXTT10=
EXTT11=
PLAYORDER=
